<svg width="360" height="288" viewBox="0 0 360 288" fill="none" xmlns="http://www.w3.org/2000/svg">
<g opacity="0.18">
<path d="M287.654 132.927H265.5L243.346 110.774V121.851C243.346 134.086 253.265 144.004 265.5 144.004H287.654V188.312C287.654 199.249 283.677 209.283 277.107 217.008C272.85 221.89 267.716 225.887 261.814 228.596L252.571 208.462C255.693 207.029 258.335 204.883 260.546 202.277C263.65 198.462 265.5 193.615 265.5 188.312V166.158H251.654V177.235C251.654 182.178 250.566 186.865 248.63 191.081L221.422 243.545L221.501 243.697L244.709 288.004H219.7L196.491 243.697H196.569L196.491 243.545L213.858 210.15C204.844 208.911 196.981 204.063 191.783 197.104C195.337 182.433 193.485 166.423 185.338 152.312L175.743 157.851C180.104 165.403 182.423 174.056 182.423 182.774C182.423 190.909 180.392 199.028 176.574 206.212C176.574 206.212 163.44 231.196 156.892 243.697L180.103 288.004H155.093L131.885 243.697L137.829 232.344C131.634 232.993 125.327 232.488 119.32 230.835L112.584 243.697L135.795 288.004H110.785L87.5769 243.697L99.8113 220.334C89.3453 211.196 82.7308 197.759 82.7308 182.774V159.581C76.6132 159.581 71.6538 164.541 71.6538 170.658V221.543C71.6538 233.778 61.7352 243.697 49.5 243.697V178.425C49.5 159.75 65.25 144.004 82.7308 144.004H99.3461C105.464 144.004 110.423 139.045 110.423 132.927V110.774H193.5V99.6967L218.342 74.8548C230.806 62.391 242.173 49.8505 259.799 49.8505H287.654V132.927Z" fill="#111A26"/>
<path d="M154.731 0.00439453C170.025 0.00439453 182.423 12.4027 182.423 27.6967V49.8505L154.731 38.7736V60.9275H127.038V27.6967C127.038 12.4027 139.437 0.00439453 154.731 0.00439453Z" fill="#111A26"/>
<path d="M182.422 120.548C182.422 128.242 178.43 135.385 171.878 139.416L146.422 155.083L120.967 139.416C114.415 135.385 110.422 128.242 110.422 120.548V110.775H-0.000442505V99.6981H110.422V66.4673H182.422V120.548Z" fill="#111A26"/>
<path d="M359.999 105.237V110.775H193.499V99.6981L359.999 105.237Z" fill="#111A26"/>
</g>
</svg>
