<svg width="1000" height="1000" viewBox="0 0 1000 1000" fill="none" xmlns="http://www.w3.org/2000/svg">
<path d="M799.038 469.243H737.5L675.962 407.704V438.473C675.962 472.46 703.513 500.012 737.5 500.012H799.038V623.089C799.038 653.469 787.993 681.34 769.742 702.799C757.918 716.361 743.655 727.463 727.261 734.988L701.585 679.061C710.257 675.081 717.597 669.12 723.738 661.881C732.361 651.283 737.5 637.818 737.5 623.089V561.55H699.038V592.319C699.038 606.05 696.017 619.07 690.64 630.781L615.062 776.514L615.279 776.935L679.748 900.012H610.276L545.808 776.935H546.026L545.808 776.514L594.05 683.748C569.011 680.308 547.17 666.841 532.73 647.51C542.602 606.759 537.459 562.287 514.829 523.089L488.176 538.473C500.289 559.453 506.731 583.489 506.731 607.704C506.731 630.304 501.088 652.855 490.482 672.811C490.482 672.811 454 742.211 435.81 776.935L500.285 900.012H430.814L366.346 776.935L382.858 745.399C365.651 747.202 348.131 745.8 331.445 741.208L312.733 776.935L377.209 900.012H307.737L243.269 776.935L277.254 712.039C248.181 686.656 229.808 649.329 229.808 607.704V543.281C212.814 543.281 199.038 557.057 199.038 574.05V715.396C199.038 749.383 171.487 776.935 137.5 776.935V595.625C137.5 543.75 181.25 500.012 229.808 500.012H275.962C292.955 500.012 306.731 486.236 306.731 469.243V407.704H537.5V376.935L606.505 307.929C641.127 273.308 672.702 238.473 721.665 238.473H799.038V469.243Z" fill="#EEE5D9"/>
<path d="M429.808 100.012C472.291 100.012 506.731 134.451 506.731 176.935V238.473L429.808 207.704V269.242H352.885V176.935C352.885 134.451 387.324 100.012 429.808 100.012Z" fill="#EEE5D9"/>
<path d="M506.73 434.856C506.73 456.226 495.641 476.068 477.441 487.268L406.73 530.785L336.02 487.268C317.82 476.068 306.73 456.226 306.73 434.856V407.708H0V376.939H306.73V284.631H506.73V434.856Z" fill="#D94C58"/>
<path d="M1000 392.323V407.708H537.5V376.939L1000 392.323Z" fill="#D94C58"/>
</svg>
