<svg width="1000" height="1001" viewBox="0 0 1000 1001" fill="none" xmlns="http://www.w3.org/2000/svg">
<g opacity="0.1">
<path d="M799.038 470.132H737.5L675.962 408.594V439.363C675.962 473.35 703.513 500.901 737.5 500.901H799.038V623.978C799.038 654.359 787.993 682.23 769.742 703.688C757.918 717.251 743.655 728.352 727.261 735.877L701.585 679.95C710.257 675.97 717.597 670.009 723.738 662.77C732.361 652.172 737.5 638.708 737.5 623.978V562.44H699.038V593.209C699.038 606.94 696.017 619.959 690.64 631.671L615.062 777.404L615.279 777.824L679.748 900.901H610.276L545.808 777.824H546.026L545.808 777.404L594.05 684.638C569.011 681.198 547.17 667.731 532.73 648.4C542.602 607.648 537.459 563.176 514.829 523.978L488.176 539.363C500.289 560.343 506.731 584.379 506.731 608.594C506.731 631.193 501.088 653.744 490.482 673.7C490.482 673.7 454 743.101 435.81 777.824L500.285 900.901H430.814L366.346 777.824L382.858 746.289C365.651 748.091 348.131 746.689 331.445 742.097L312.733 777.824L377.209 900.901H307.737L243.269 777.824L277.254 712.928C248.181 687.546 229.808 650.218 229.808 608.594V544.171C212.814 544.171 199.038 557.946 199.038 574.94V716.286C199.038 750.273 171.487 777.824 137.5 777.824V596.514C137.5 544.639 181.25 500.901 229.808 500.901H275.962C292.955 500.901 306.731 487.126 306.731 470.132V408.594H537.5V377.824L606.505 308.819C641.127 274.198 672.702 239.363 721.665 239.363H799.038V470.132Z" fill="#EEE5D9"/>
<path d="M429.808 100.901C472.291 100.901 506.731 135.341 506.731 177.824V239.363L429.808 208.594V270.132H352.885V177.824C352.885 135.341 387.324 100.901 429.808 100.901Z" fill="#EEE5D9"/>
<path d="M506.73 435.746C506.73 457.116 495.641 476.957 477.441 488.157L406.73 531.674L336.02 488.157C317.82 476.957 306.73 457.116 306.73 435.746V408.597H0V377.828H306.73V285.521H506.73V435.746Z" fill="#EEE5D9"/>
<path d="M1000 393.213V408.597H537.5V377.828L1000 393.213Z" fill="#EEE5D9"/>
</g>
</svg>
